<svg xmlns="http://www.w3.org/2000/svg" viewBox="0 0 32 32">
  <defs>
    <linearGradient id="g" x1="0%" y1="0%" x2="100%" y2="100%">
      <stop offset="0%" stop-color="#6366f1"/>
      <stop offset="100%" stop-color="#8b5cf6"/>
    </linearGradient>
  </defs>
  <rect width="32" height="32" rx="8" fill="url(#g)"/>
  <path d="M16 6c-5.5 0-10 4.5-10 10s4.5 10 10 10 10-4.5 10-10S21.5 6 16 6zm0 4c.8 0 1.5.3 2 .8L12.8 18c-.5-.5-.8-1.2-.8-2 0-1.7 1.3-3 3-3zm4 9.2c-.5.5-1.2.8-2 .8-1.7 0-3-1.3-3-3 0-.8.3-1.5.8-2L20 19.2z" fill="white"/>
</svg>
